<?xml version="1.0" standalone="no"?>
<!DOCTYPE svg PUBLIC "-//W3C//DTD SVG 20010904//EN"
 "http://www.w3.org/TR/2001/REC-SVG-20010904/DTD/svg10.dtd">
<svg version="1.0" xmlns="http://www.w3.org/2000/svg"
 width="500.000000pt" height="135.000000pt" viewBox="0 0 500.000000 135.000000"
 preserveAspectRatio="xMidYMid meet">

<g transform="translate(0.000000,135.000000) scale(0.100000,-0.100000)"
fill="#000000" stroke="none">
<path d="M2670 800 l0 -400 85 0 85 0 0 154 0 154 31 26 c17 15 43 26 59 26
78 0 90 -29 90 -215 l0 -145 86 0 86 0 -4 182 c-4 218 -10 236 -97 281 -83 41
-174 36 -228 -15 l-23 -21 0 186 0 187 -85 0 -85 0 0 -400z"/>
<path d="M741 1095 c-31 -27 -57 -86 -47 -110 4 -12 -4 -15 -40 -15 -88 0 -85
8 -109 -275 -3 -38 -8 -86 -10 -105 -2 -19 -7 -69 -10 -110 -3 -41 -8 -91 -10
-110 -15 -130 -16 -182 -5 -195 19 -23 922 -22 940 0 16 19 6 400 -10 420 -6
7 -37 16 -68 20 -56 6 -57 7 -59 40 -1 18 -7 43 -13 55 -16 30 -69 60 -107 60
-18 0 -33 3 -34 8 0 4 -2 18 -4 32 -2 14 -6 50 -9 80 -6 66 -22 80 -88 80 -44
0 -48 2 -48 24 0 37 -17 74 -46 101 -24 22 -36 25 -110 25 -74 0 -86 -3 -113
-25z m225 -46 c20 -40 18 -79 -3 -79 -14 0 -18 9 -20 37 -1 20 -11 49 -23 65
l-20 28 26 -12 c14 -7 32 -24 40 -39z m-191 11 c-8 -16 -15 -43 -15 -60 0 -24
-4 -30 -21 -30 -19 0 -21 4 -14 38 6 35 39 82 57 82 5 0 2 -13 -7 -30z m114 7
c12 -14 23 -40 24 -60 l3 -37 -63 0 -63 0 0 34 c0 38 33 86 59 86 10 0 27 -11
40 -23z m-263 -134 c-2 -10 -7 -49 -11 -88 -8 -96 -15 -172 -20 -220 -2 -22
-7 -76 -10 -120 -4 -44 -8 -89 -10 -101 -2 -11 -6 -65 -10 -120 -4 -54 -9
-101 -11 -103 -2 -2 -10 -1 -19 3 -13 5 -15 16 -10 63 7 67 12 123 20 213 3
36 8 85 10 110 3 25 12 116 20 203 8 87 17 162 20 168 11 17 37 10 31 -8z
m134 -2 c0 -10 -7 -24 -15 -31 -8 -7 -15 -23 -15 -37 0 -28 35 -46 63 -31 18
9 23 53 7 63 -5 3 -10 17 -10 31 0 24 1 24 95 24 105 0 109 -3 78 -60 -18 -31
-18 -31 6 -51 21 -17 26 -18 45 -6 26 18 32 50 11 67 -8 7 -15 21 -15 31 0 16
8 19 49 19 28 0 52 -4 56 -9 3 -6 8 -29 10 -53 3 -24 8 -60 10 -80 5 -33 3
-38 -15 -38 -56 0 -120 -66 -120 -122 0 -19 -5 -28 -17 -29 -10 -1 -34 -3 -53
-5 -58 -4 -61 -16 -58 -236 l3 -198 -142 0 c-83 0 -144 4 -148 10 -3 5 1 85 9
177 9 93 18 204 21 248 4 44 8 91 10 105 2 14 7 66 10 115 4 50 12 96 17 103
6 6 32 12 59 12 41 0 49 -3 49 -19z m20 -74 c10 -4 8 -6 -7 -6 -16 -1 -23 5
-23 17 0 10 3 13 8 6 4 -6 14 -14 22 -17z m215 3 c7 0 16 5 18 10 3 6 4 5 3
-2 -2 -7 -11 -13 -21 -13 -10 0 -19 6 -21 13 -1 7 0 8 3 2 2 -5 11 -10 18 -10z
m90 -150 c-9 -17 -17 -44 -18 -60 -1 -21 -7 -30 -19 -30 -30 0 -23 57 11 91
38 37 46 37 26 -1z m122 -10 c7 -8 13 -30 13 -47 0 -29 -3 -33 -25 -33 -19 0
-25 5 -25 23 -1 12 -3 40 -6 62 -6 37 -5 39 12 25 11 -8 24 -22 31 -30z m68
-10 c21 -42 19 -70 -5 -70 -16 0 -20 7 -20 33 0 18 -7 42 -15 53 -20 27 -18
37 5 24 11 -6 27 -24 35 -40z m-129 -18 l6 -52 -30 0 c-29 0 -29 1 -22 40 7
36 28 75 36 67 2 -2 6 -26 10 -55z m-216 -287 c0 -170 -2 -205 -14 -205 -8 0
-16 4 -18 10 -2 5 -2 98 0 205 2 163 5 195 17 195 13 0 15 -32 15 -205z m136
192 c-1 -6 -9 -23 -19 -37 -14 -21 -15 -27 -3 -45 16 -25 42 -31 61 -15 18 15
19 52 3 68 -6 6 -13 19 -14 27 -2 13 14 15 97 15 83 0 99 -2 99 -16 0 -8 -7
-22 -15 -30 -33 -33 -6 -81 39 -70 33 8 43 42 20 67 -36 39 -28 50 34 47 l57
-3 7 -190 c4 -104 5 -196 3 -203 -4 -10 -57 -12 -242 -10 l-238 3 -3 190 c-1
104 0 195 2 202 7 18 115 18 112 0z m14 -77 c5 0 11 5 13 10 3 6 4 5 3 -2 -4
-18 -30 -16 -32 2 0 9 1 10 3 3 3 -7 8 -13 13 -13z m220 0 c5 0 10 8 12 18 2
10 6 13 10 7 10 -17 -8 -39 -26 -32 -9 4 -15 14 -15 24 1 17 2 17 6 1 2 -10 8
-18 13 -18z"/>
<path d="M1765 866 c-60 -28 -108 -76 -131 -131 -24 -56 -22 -150 4 -202 29
-55 102 -118 157 -133 63 -18 179 -9 231 18 38 19 94 74 94 91 0 4 -25 19 -55
34 l-55 27 -36 -25 c-51 -34 -112 -34 -153 1 -19 16 -31 35 -31 50 l0 24 170
0 170 0 0 48 c-1 90 -63 176 -149 207 -66 23 -156 19 -216 -9z m183 -109 c42
-39 30 -47 -68 -47 -49 0 -90 4 -90 9 0 18 41 60 63 64 34 6 70 -4 95 -26z"/>
<path d="M2300 868 c-85 -43 -114 -130 -67 -198 13 -20 45 -44 82 -62 33 -16
67 -33 75 -37 8 -5 15 -19 15 -32 0 -36 -52 -38 -115 -5 l-50 26 -30 -53 c-16
-28 -30 -55 -30 -59 0 -3 21 -17 48 -30 71 -35 210 -38 271 -6 25 13 53 35 64
49 28 38 32 106 10 148 -24 45 -55 67 -133 94 -51 17 -66 27 -68 44 -5 37 61
41 138 9 12 -5 23 8 43 48 l26 55 -51 16 c-78 23 -174 20 -228 -7z"/>
<path d="M3441 879 c-113 -33 -184 -126 -184 -244 -1 -92 51 -172 138 -218 48
-25 179 -35 241 -18 136 37 215 163 184 298 -10 47 -21 65 -64 108 -34 34 -68
57 -100 68 -54 19 -160 21 -215 6z m159 -146 c91 -53 52 -202 -52 -203 -75 0
-118 42 -118 116 0 28 8 44 34 70 39 39 89 45 136 17z"/>
<path d="M4140 874 c-19 -8 -42 -22 -52 -31 -17 -15 -18 -14 -18 10 0 27 0 27
-80 27 l-80 0 0 -360 0 -360 80 0 80 0 0 140 0 139 46 -24 c36 -19 62 -25 111
-25 76 0 124 21 175 78 43 48 62 99 62 172 0 30 -6 72 -13 94 -18 51 -76 115
-126 137 -49 23 -137 24 -185 3z m116 -158 c28 -28 34 -42 34 -76 0 -34 -6
-48 -34 -76 -73 -73 -187 -25 -186 78 1 66 44 107 114 108 30 0 45 -7 72 -34z"/>
</g>
</svg>
